<?xml version="1.0" encoding="utf-8" standalone="no"?>
<!DOCTYPE svg PUBLIC "-//W3C//DTD SVG 1.1//EN"
  "http://www.w3.org/Graphics/SVG/1.1/DTD/svg11.dtd">
<svg xmlns:xlink="http://www.w3.org/1999/xlink" width="599.9868pt" height="469.1664pt" viewBox="0 0 599.9868 469.1664" xmlns="http://www.w3.org/2000/svg" version="1.1">
 <metadata>
  <rdf:RDF xmlns:dc="http://purl.org/dc/elements/1.1/" xmlns:cc="http://creativecommons.org/ns#" xmlns:rdf="http://www.w3.org/1999/02/22-rdf-syntax-ns#">
   <cc:Work>
    <dc:type rdf:resource="http://purl.org/dc/dcmitype/StillImage"/>
    <dc:date>2026-07-22T17:47:40.724006</dc:date>
    <dc:format>image/svg+xml</dc:format>
    <dc:creator>
     <cc:Agent>
      <dc:title>Matplotlib v3.11.0, https://matplotlib.org/</dc:title>
     </cc:Agent>
    </dc:creator>
   </cc:Work>
  </rdf:RDF>
 </metadata>
 <defs>
  <style type="text/css">*{stroke-linejoin: round; stroke-linecap: butt}</style>
 </defs>
 <g id="figure_1">
  <g id="patch_1">
   <path d="M 0 469.1664 
L 599.9868 469.1664 
L 599.9868 0 
L 0 0 
z
" style="fill: #ffffff"/>
  </g>
  <g id="axes_1">
   <g id="patch_2">
    <path d="M 79.9848 202.261614 
L 177.475675 202.261614 
L 177.475675 79.4304 
L 79.9848 79.4304 
z
" style="fill: #ffffff"/>
   </g>
   <g id="patch_3">
    <path d="M 84.416203 202.261614 
L 92.928504 202.261614 
L 92.928504 202.211739 
L 84.416203 202.211739 
z
" clip-path="url(#p10ee45dc4c)" style="fill: #b23a32; opacity: 0.22"/>
   </g>
   <g id="patch_4">
    <path d="M 94.430674 202.261614 
L 102.942975 202.261614 
L 102.942975 200.56586 
L 94.430674 200.56586 
z
" clip-path="url(#p10ee45dc4c)" style="fill: #b23a32; opacity: 0.22"/>
   </g>
   <g id="patch_5">
    <path d="M 104.445145 202.261614 
L 112.957446 202.261614 
L 112.957446 201.48855 
L 104.445145 201.48855 
z
" clip-path="url(#p10ee45dc4c)" style="fill: #b23a32; opacity: 0.22"/>
   </g>
   <g id="patch_6">
    <path d="M 114.459616 202.261614 
L 122.971916 202.261614 
L 122.971916 85.279505 
L 114.459616 85.279505 
z
" clip-path="url(#p10ee45dc4c)" style="fill: #b23a32; opacity: 0.22"/>
   </g>
   <g id="patch_7">
    <path d="M 124.474087 202.261614 
L 132.986387 202.261614 
L 132.986387 199.742921 
L 124.474087 199.742921 
z
" clip-path="url(#p10ee45dc4c)" style="fill: #b23a32; opacity: 0.22"/>
   </g>
   <g id="patch_8">
    <path d="M 134.488558 202.261614 
L 143.000858 202.261614 
L 143.000858 202.037176 
L 134.488558 202.037176 
z
" clip-path="url(#p10ee45dc4c)" style="fill: #b23a32; opacity: 0.22"/>
   </g>
   <g id="patch_9">
    <path d="M 144.503029 202.261614 
L 153.015329 202.261614 
L 153.015329 202.186802 
L 144.503029 202.186802 
z
" clip-path="url(#p10ee45dc4c)" style="fill: #b23a32; opacity: 0.22"/>
   </g>
   <g id="patch_10">
    <path d="M 154.5175 202.261614 
L 163.0298 202.261614 
L 163.0298 202.236677 
L 154.5175 202.236677 
z
" clip-path="url(#p10ee45dc4c)" style="fill: #b23a32; opacity: 0.22"/>
   </g>
   <g id="patch_11">
    <path d="M 164.531971 202.261614 
L 173.044271 202.261614 
L 173.044271 202.236677 
L 164.531971 202.236677 
z
" clip-path="url(#p10ee45dc4c)" style="fill: #b23a32; opacity: 0.22"/>
   </g>
   <g id="matplotlib.axis_1">
    <g id="xtick_1">
     <g id="line2d_1">
      <path d="M 88.672354 202.261614 
L 88.672354 79.4304 
" clip-path="url(#p10ee45dc4c)" style="fill: none; stroke: #e6e8eb; stroke-opacity: 0.9; stroke-width: 0.45; stroke-linecap: square"/>
     </g>
     <g id="line2d_2">
      <defs>
       <path id="m62c119039d" d="M 0 0 
L 0 3.5 
" style="stroke: #202124; stroke-width: 0.8"/>
      </defs>
      <g>
       <use xlink:href="#m62c119039d" x="88.672354" y="202.261614" style="fill: #202124; stroke: #202124; stroke-width: 0.8"/>
      </g>
     </g>
     <g id="text_1">
      <text style="font-size: 6.7px; font-family: 'Arial', 'Helvetica', 'DejaVu Sans', sans-serif; text-anchor: middle; fill: #202124" x="88.672354" y="214.139398" transform="rotate(-0 88.672354 214.139398)">0.0</text>
     </g>
    </g>
    <g id="xtick_2">
     <g id="line2d_3">
      <path d="M 113.708531 202.261614 
L 113.708531 79.4304 
" clip-path="url(#p10ee45dc4c)" style="fill: none; stroke: #e6e8eb; stroke-opacity: 0.9; stroke-width: 0.45; stroke-linecap: square"/>
     </g>
     <g id="line2d_4">
      <g>
       <use xlink:href="#m62c119039d" x="113.708531" y="202.261614" style="fill: #202124; stroke: #202124; stroke-width: 0.8"/>
      </g>
     </g>
     <g id="text_2">
      <text style="font-size: 6.7px; font-family: 'Arial', 'Helvetica', 'DejaVu Sans', sans-serif; text-anchor: middle; fill: #202124" x="113.708531" y="214.139398" transform="rotate(-0 113.708531 214.139398)">2.5</text>
     </g>
    </g>
    <g id="xtick_3">
     <g id="line2d_5">
      <path d="M 138.744708 202.261614 
L 138.744708 79.4304 
" clip-path="url(#p10ee45dc4c)" style="fill: none; stroke: #e6e8eb; stroke-opacity: 0.9; stroke-width: 0.45; stroke-linecap: square"/>
     </g>
     <g id="line2d_6">
      <g>
       <use xlink:href="#m62c119039d" x="138.744708" y="202.261614" style="fill: #202124; stroke: #202124; stroke-width: 0.8"/>
      </g>
     </g>
     <g id="text_3">
      <text style="font-size: 6.7px; font-family: 'Arial', 'Helvetica', 'DejaVu Sans', sans-serif; text-anchor: middle; fill: #202124" x="138.744708" y="214.139398" transform="rotate(-0 138.744708 214.139398)">5.0</text>
     </g>
    </g>
    <g id="xtick_4">
     <g id="line2d_7">
      <path d="M 163.780886 202.261614 
L 163.780886 79.4304 
" clip-path="url(#p10ee45dc4c)" style="fill: none; stroke: #e6e8eb; stroke-opacity: 0.9; stroke-width: 0.45; stroke-linecap: square"/>
     </g>
     <g id="line2d_8">
      <g>
       <use xlink:href="#m62c119039d" x="163.780886" y="202.261614" style="fill: #202124; stroke: #202124; stroke-width: 0.8"/>
      </g>
     </g>
     <g id="text_4">
      <text style="font-size: 6.7px; font-family: 'Arial', 'Helvetica', 'DejaVu Sans', sans-serif; text-anchor: middle; fill: #202124" x="163.780886" y="214.139398" transform="rotate(-0 163.780886 214.139398)">7.5</text>
     </g>
    </g>
    <g id="text_5">
     <text style="font-size: 7.4px; font-family: 'Arial', 'Helvetica', 'DejaVu Sans', sans-serif; text-anchor: middle; fill: #202124" x="128.730237" y="224.93681" transform="rotate(-0 128.730237 224.93681)">Day</text>
    </g>
   </g>
   <g id="matplotlib.axis_2">
    <g id="ytick_1">
     <g id="line2d_9">
      <path d="M 79.9848 202.261614 
L 177.475675 202.261614 
" clip-path="url(#p10ee45dc4c)" style="fill: none; stroke: #e6e8eb; stroke-opacity: 0.9; stroke-width: 0.45; stroke-linecap: square"/>
     </g>
     <g id="line2d_10">
      <defs>
       <path id="mb06fa159c0" d="M 0 0 
L -3.5 0 
" style="stroke: #202124; stroke-width: 0.8"/>
      </defs>
      <g>
       <use xlink:href="#mb06fa159c0" x="79.9848" y="202.261614" style="fill: #202124; stroke: #202124; stroke-width: 0.8"/>
      </g>
     </g>
     <g id="text_6">
      <text style="font-size: 6.7px; font-family: 'Arial', 'Helvetica', 'DejaVu Sans', sans-serif; text-anchor: end; fill: #202124" x="72.9848" y="204.700506" transform="rotate(-0 72.9848 204.700506)">0</text>
     </g>
    </g>
    <g id="ytick_2">
     <g id="line2d_11">
      <path d="M 79.9848 85.279505 
L 177.475675 85.279505 
" clip-path="url(#p10ee45dc4c)" style="fill: none; stroke: #e6e8eb; stroke-opacity: 0.9; stroke-width: 0.45; stroke-linecap: square"/>
     </g>
     <g id="line2d_12">
      <g>
       <use xlink:href="#mb06fa159c0" x="79.9848" y="85.279505" style="fill: #202124; stroke: #202124; stroke-width: 0.8"/>
      </g>
     </g>
     <g id="text_7">
      <text style="font-size: 6.7px; font-family: 'Arial', 'Helvetica', 'DejaVu Sans', sans-serif; text-anchor: end; fill: #202124" x="72.9848" y="87.718397" transform="rotate(-0 72.9848 87.718397)">1</text>
     </g>
    </g>
    <g id="text_8">
     <text style="font-size: 7.4px; font-family: 'Arial', 'Helvetica', 'DejaVu Sans', sans-serif; text-anchor: middle; fill: #202124" x="63.701648" y="140.846007" transform="rotate(-90 63.701648 140.846007)">Scaled burned area</text>
    </g>
   </g>
   <g id="line2d_13">
    <path d="M 88.672354 202.213935 
L 98.686824 200.592825 
L 108.701295 199.85379 
L 118.715766 88.021087 
L 128.730237 85.613263 
L 138.744708 85.398705 
L 148.759179 85.327185 
L 158.77365 85.303345 
L 168.788121 85.279505 
" clip-path="url(#p10ee45dc4c)" style="fill: none; stroke: #b23a32; stroke-width: 1.8; stroke-linecap: square"/>
   </g>
   <g id="patch_12">
    <path d="M 79.9848 202.261614 
L 79.9848 79.4304 
" style="fill: none; stroke: #202124; stroke-width: 0.8; stroke-linejoin: miter; stroke-linecap: square"/>
   </g>
   <g id="patch_13">
    <path d="M 79.9848 202.261614 
L 177.475675 202.261614 
" style="fill: none; stroke: #202124; stroke-width: 0.8; stroke-linejoin: miter; stroke-linecap: square"/>
   </g>
   <g id="text_9">
    <text style="font-size: 6.8px; font-family: 'Arial', 'Helvetica', 'DejaVu Sans', sans-serif; text-anchor: start; fill: #62666d" x="81.934617" y="91.750859" transform="rotate(-0 81.934617 91.750859)">1053.3 km2, 11 d</text>
   </g>
   <g id="text_10">
    <text style="font-weight: 700; font-size: 8.5px; font-family: 'Arial', 'Helvetica', 'DejaVu Sans', sans-serif; fill: #b23a32" transform="translate(106.528636 64.179013)">Early burst</text>
    <text style="font-weight: 700; font-size: 8.5px; font-family: 'Arial', 'Helvetica', 'DejaVu Sans', sans-serif; fill: #b23a32" transform="translate(92.127776 73.4304)">most growth early</text>
   </g>
  </g>
  <g id="axes_2">
   <g id="patch_14">
    <path d="M 128.730237 349.165173 
C 128.941035 349.165173 129.143227 348.819472 129.292283 348.204207 
C 129.44134 347.588942 129.52509 346.754346 129.52509 345.88423 
C 129.52509 345.014114 129.44134 344.179518 129.292283 343.564253 
C 129.143227 342.948988 128.941035 342.603287 128.730237 342.603287 
C 128.51944 342.603287 128.317248 342.948988 128.168191 343.564253 
C 128.019135 344.179518 127.935384 345.014114 127.935384 345.88423 
C 127.935384 346.754346 128.019135 347.588942 128.168191 348.204207 
C 128.317248 348.819472 128.51944 349.165173 128.730237 349.165173 
z
" clip-path="url(#p68cc405e16)" style="fill: #b23a32; opacity: 0.9; stroke: #202124; stroke-width: 0.45; stroke-linejoin: miter"/>
   </g>
   <g id="patch_15">
    <path d="M 128.730237 337.44752 
C 129.977332 337.44752 131.173517 337.101819 132.055346 336.486554 
C 132.937176 335.871289 133.432652 335.036693 133.432652 334.166577 
C 133.432652 333.296461 132.937176 332.461865 132.055346 331.8466 
C 131.173517 331.231335 129.977332 330.885634 128.730237 330.885634 
C 127.483142 330.885634 126.286957 331.231335 125.405128 331.8466 
C 124.523299 332.461865 124.027823 333.296461 124.027823 334.166577 
C 124.027823 335.036693 124.523299 335.871289 125.405128 336.486554 
C 126.286957 337.101819 127.483142 337.44752 128.730237 337.44752 
z
" clip-path="url(#p68cc405e16)" style="fill: #b23a32; opacity: 0.9; stroke: #202124; stroke-width: 0.45; stroke-linejoin: miter"/>
   </g>
   <g id="patch_16">
    <path d="M 128.730237 325.729867 
C 130.228235 325.729867 131.66508 325.384166 132.724325 324.768901 
C 133.783569 324.153636 134.37873 323.31904 134.37873 322.448924 
C 134.37873 321.578808 133.783569 320.744212 132.724325 320.128947 
C 131.66508 319.513682 130.228235 319.167981 128.730237 319.167981 
C 127.232239 319.167981 125.795394 319.513682 124.73615 320.128947 
C 123.676905 320.744212 123.081745 321.578808 123.081745 322.448924 
C 123.081745 323.31904 123.676905 324.153636 124.73615 324.768901 
C 125.795394 325.384166 127.232239 325.729867 128.730237 325.729867 
z
" clip-path="url(#p68cc405e16)" style="fill: #b23a32; opacity: 0.9; stroke: #202124; stroke-width: 0.45; stroke-linejoin: miter"/>
   </g>
   <g id="patch_17">
    <path d="M 128.730237 314.012214 
C 139.048555 314.012214 148.94565 313.666513 156.241802 313.051248 
C 163.537955 312.435982 167.637466 311.601387 167.637466 310.731271 
C 167.637466 309.861154 163.537955 309.026559 156.241802 308.411294 
C 148.94565 307.796029 139.048555 307.450328 128.730237 307.450328 
C 118.41192 307.450328 108.514825 307.796029 101.218672 308.411294 
C 93.92252 309.026559 89.823009 309.861154 89.823009 310.731271 
C 89.823009 311.601387 93.92252 312.435982 101.218672 313.051248 
C 108.514825 313.666513 118.41192 314.012214 128.730237 314.012214 
z
" clip-path="url(#p68cc405e16)" style="fill: #b23a32; opacity: 0.9; stroke: #202124; stroke-width: 0.45; stroke-linejoin: miter"/>
   </g>
   <g id="patch_18">
    <path d="M 128.730237 302.29456 
C 139.156726 302.29456 149.157577 301.948859 156.530218 301.333594 
C 163.902859 300.718329 168.045347 299.883734 168.045347 299.013617 
C 168.045347 298.143501 163.902859 297.308906 156.530218 296.69364 
C 149.157577 296.078375 139.156726 295.732675 128.730237 295.732675 
C 118.303748 295.732675 108.302897 296.078375 100.930256 296.69364 
C 93.557615 297.308906 89.415127 298.143501 89.415127 299.013617 
C 89.415127 299.883734 93.557615 300.718329 100.930256 301.333594 
C 108.302897 301.948859 118.303748 302.29456 128.730237 302.29456 
z
" clip-path="url(#p68cc405e16)" style="fill: #b23a32; opacity: 0.9; stroke: #202124; stroke-width: 0.45; stroke-linejoin: miter"/>
   </g>
   <g id="patch_19">
    <path d="M 128.730237 290.576907 
C 139.166311 290.576907 149.176355 290.231206 156.555774 289.615941 
C 163.935192 289.000676 168.081488 288.16608 168.081488 287.295964 
C 168.081488 286.425848 163.935192 285.591252 156.555774 284.975987 
C 149.176355 284.360722 139.166311 284.015021 128.730237 284.015021 
C 118.294164 284.015021 108.284119 284.360722 100.904701 284.975987 
C 93.525282 285.591252 89.378986 286.425848 89.378986 287.295964 
C 89.378986 288.16608 93.525282 289.000676 100.904701 289.615941 
C 108.284119 290.231206 118.294164 290.576907 128.730237 290.576907 
z
" clip-path="url(#p68cc405e16)" style="fill: #b23a32; opacity: 0.9; stroke: #202124; stroke-width: 0.45; stroke-linejoin: miter"/>
   </g>
   <g id="patch_20">
    <path d="M 128.730237 278.859254 
C 139.169504 278.859254 149.182611 278.513553 156.564287 277.898288 
C 163.945963 277.283023 168.093528 276.448427 168.093528 275.578311 
C 168.093528 274.708195 163.945963 273.873599 156.564287 273.258334 
C 149.182611 272.643069 139.169504 272.297368 128.730237 272.297368 
C 118.290971 272.297368 108.277864 272.643069 100.896188 273.258334 
C 93.514511 273.873599 89.366947 274.708195 89.366947 275.578311 
C 89.366947 276.448427 93.514511 277.283023 100.896188 277.898288 
C 108.277864 278.513553 118.290971 278.859254 128.730237 278.859254 
z
" clip-path="url(#p68cc405e16)" style="fill: #b23a32; opacity: 0.9; stroke: #202124; stroke-width: 0.45; stroke-linejoin: miter"/>
   </g>
   <g id="patch_21">
    <path d="M 128.730237 267.141601 
C 139.170568 267.141601 149.184695 266.7959 156.567124 266.180635 
C 163.949553 265.56537 168.09754 264.730774 168.09754 263.860658 
C 168.09754 262.990542 163.949553 262.155946 156.567124 261.540681 
C 149.184695 260.925416 139.170568 260.579715 128.730237 260.579715 
C 118.289907 260.579715 108.275779 260.925416 100.893351 261.540681 
C 93.510922 262.155946 89.362935 262.990542 89.362935 263.860658 
C 89.362935 264.730774 93.510922 265.56537 100.893351 266.180635 
C 108.275779 266.7959 118.289907 267.141601 128.730237 267.141601 
z
" clip-path="url(#p68cc405e16)" style="fill: #b23a32; opacity: 0.9; stroke: #202124; stroke-width: 0.45; stroke-linejoin: miter"/>
   </g>
   <g id="patch_22">
    <path d="M 128.730237 255.423948 
C 139.171632 255.423948 149.18678 255.078247 156.569961 254.462982 
C 163.953142 253.847717 168.101552 253.013121 168.101552 252.143005 
C 168.101552 251.272888 163.953142 250.438293 156.569961 249.823028 
C 149.18678 249.207763 139.171632 248.862062 128.730237 248.862062 
C 118.288843 248.862062 108.273695 249.207763 100.890514 249.823028 
C 93.507333 250.438293 89.358923 251.272888 89.358923 252.143005 
C 89.358923 253.013121 93.507333 253.847717 100.890514 254.462982 
C 108.273695 255.078247 118.288843 255.423948 128.730237 255.423948 
z
" clip-path="url(#p68cc405e16)" style="fill: #b23a32; opacity: 0.9; stroke: #202124; stroke-width: 0.45; stroke-linejoin: miter"/>
   </g>
   <g id="line2d_14">
    <path d="M 127.935384 345.88423 
L 124.027823 334.166577 
L 123.081745 322.448924 
L 89.823009 310.731271 
L 89.415127 299.013617 
L 89.378986 287.295964 
L 89.366947 275.578311 
L 89.362935 263.860658 
L 89.358923 252.143005 
" clip-path="url(#p68cc405e16)" style="fill: none; stroke: #202124; stroke-width: 0.85; stroke-linecap: square"/>
   </g>
   <g id="line2d_15">
    <path d="M 129.52509 345.88423 
L 133.432652 334.166577 
L 134.37873 322.448924 
L 167.637466 310.731271 
L 168.045347 299.013617 
L 168.081488 287.295964 
L 168.093528 275.578311 
L 168.09754 263.860658 
L 168.101552 252.143005 
" clip-path="url(#p68cc405e16)" style="fill: none; stroke: #202124; stroke-width: 0.85; stroke-linecap: square"/>
   </g>
   <g id="text_11">
    <text style="font-size: 7.4px; font-family: 'Arial', 'Helvetica', 'DejaVu Sans', sans-serif; text-anchor: middle; fill: #62666d" x="128.730237" y="242.393356" transform="rotate(-0 128.730237 242.393356)">Fire VASE</text>
   </g>
  </g>
  <g id="axes_3">
   <g id="patch_23">
    <path d="M 218.421842 202.261614 
L 315.912716 202.261614 
L 315.912716 79.4304 
L 218.421842 79.4304 
z
" style="fill: #ffffff"/>
   </g>
   <g id="patch_24">
    <path d="M 222.853245 202.261614 
L 238.385999 202.261614 
L 238.385999 85.279505 
L 222.853245 85.279505 
z
" clip-path="url(#p0f761e12ae)" style="fill: #3b78b6; opacity: 0.22"/>
   </g>
   <g id="patch_25">
    <path d="M 241.127074 202.261614 
L 256.659828 202.261614 
L 256.659828 85.279505 
L 241.127074 85.279505 
z
" clip-path="url(#p0f761e12ae)" style="fill: #3b78b6; opacity: 0.22"/>
   </g>
   <g id="patch_26">
    <path d="M 259.400902 202.261614 
L 274.933656 202.261614 
L 274.933656 85.279505 
L 259.400902 85.279505 
z
" clip-path="url(#p0f761e12ae)" style="fill: #3b78b6; opacity: 0.22"/>
   </g>
   <g id="patch_27">
    <path d="M 277.67473 202.261614 
L 293.207485 202.261614 
L 293.207485 85.279505 
L 277.67473 85.279505 
z
" clip-path="url(#p0f761e12ae)" style="fill: #3b78b6; opacity: 0.22"/>
   </g>
   <g id="patch_28">
    <path d="M 295.948559 202.261614 
L 311.481313 202.261614 
L 311.481313 85.279505 
L 295.948559 85.279505 
z
" clip-path="url(#p0f761e12ae)" style="fill: #3b78b6; opacity: 0.22"/>
   </g>
   <g id="matplotlib.axis_3">
    <g id="xtick_5">
     <g id="line2d_16">
      <path d="M 230.619622 202.261614 
L 230.619622 79.4304 
" clip-path="url(#p0f761e12ae)" style="fill: none; stroke: #e6e8eb; stroke-opacity: 0.9; stroke-width: 0.45; stroke-linecap: square"/>
     </g>
     <g id="line2d_17">
      <g>
       <use xlink:href="#m62c119039d" x="230.619622" y="202.261614" style="fill: #202124; stroke: #202124; stroke-width: 0.8"/>
      </g>
     </g>
     <g id="text_12">
      <text style="font-size: 6.7px; font-family: 'Arial', 'Helvetica', 'DejaVu Sans', sans-serif; text-anchor: middle; fill: #202124" x="230.619622" y="214.139398" transform="rotate(-0 230.619622 214.139398)">0</text>
     </g>
    </g>
    <g id="xtick_6">
     <g id="line2d_18">
      <path d="M 267.167279 202.261614 
L 267.167279 79.4304 
" clip-path="url(#p0f761e12ae)" style="fill: none; stroke: #e6e8eb; stroke-opacity: 0.9; stroke-width: 0.45; stroke-linecap: square"/>
     </g>
     <g id="line2d_19">
      <g>
       <use xlink:href="#m62c119039d" x="267.167279" y="202.261614" style="fill: #202124; stroke: #202124; stroke-width: 0.8"/>
      </g>
     </g>
     <g id="text_13">
      <text style="font-size: 6.7px; font-family: 'Arial', 'Helvetica', 'DejaVu Sans', sans-serif; text-anchor: middle; fill: #202124" x="267.167279" y="214.139398" transform="rotate(-0 267.167279 214.139398)">2</text>
     </g>
    </g>
    <g id="xtick_7">
     <g id="line2d_20">
      <path d="M 303.714936 202.261614 
L 303.714936 79.4304 
" clip-path="url(#p0f761e12ae)" style="fill: none; stroke: #e6e8eb; stroke-opacity: 0.9; stroke-width: 0.45; stroke-linecap: square"/>
     </g>
     <g id="line2d_21">
      <g>
       <use xlink:href="#m62c119039d" x="303.714936" y="202.261614" style="fill: #202124; stroke: #202124; stroke-width: 0.8"/>
      </g>
     </g>
     <g id="text_14">
      <text style="font-size: 6.7px; font-family: 'Arial', 'Helvetica', 'DejaVu Sans', sans-serif; text-anchor: middle; fill: #202124" x="303.714936" y="214.139398" transform="rotate(-0 303.714936 214.139398)">4</text>
     </g>
    </g>
    <g id="text_15">
     <text style="font-size: 7.4px; font-family: 'Arial', 'Helvetica', 'DejaVu Sans', sans-serif; text-anchor: middle; fill: #202124" x="267.167279" y="224.93681" transform="rotate(-0 267.167279 224.93681)">Day</text>
    </g>
   </g>
   <g id="matplotlib.axis_4">
    <g id="ytick_3">
     <g id="line2d_22">
      <path d="M 218.421842 202.261614 
L 315.912716 202.261614 
" clip-path="url(#p0f761e12ae)" style="fill: none; stroke: #e6e8eb; stroke-opacity: 0.9; stroke-width: 0.45; stroke-linecap: square"/>
     </g>
     <g id="line2d_23">
      <g>
       <use xlink:href="#mb06fa159c0" x="218.421842" y="202.261614" style="fill: #202124; stroke: #202124; stroke-width: 0.8"/>
      </g>
     </g>
     <g id="text_16">
      <text style="font-size: 6.7px; font-family: 'Arial', 'Helvetica', 'DejaVu Sans', sans-serif; text-anchor: end; fill: #202124" x="211.421842" y="204.700506" transform="rotate(-0 211.421842 204.700506)">0</text>
     </g>
    </g>
    <g id="ytick_4">
     <g id="line2d_24">
      <path d="M 218.421842 85.279505 
L 315.912716 85.279505 
" clip-path="url(#p0f761e12ae)" style="fill: none; stroke: #e6e8eb; stroke-opacity: 0.9; stroke-width: 0.45; stroke-linecap: square"/>
     </g>
     <g id="line2d_25">
      <g>
       <use xlink:href="#mb06fa159c0" x="218.421842" y="85.279505" style="fill: #202124; stroke: #202124; stroke-width: 0.8"/>
      </g>
     </g>
     <g id="text_17">
      <text style="font-size: 6.7px; font-family: 'Arial', 'Helvetica', 'DejaVu Sans', sans-serif; text-anchor: end; fill: #202124" x="211.421842" y="87.718397" transform="rotate(-0 211.421842 87.718397)">1</text>
     </g>
    </g>
   </g>
   <g id="line2d_26">
    <path d="M 230.619622 178.865193 
L 248.893451 155.468771 
L 267.167279 132.072349 
L 285.441107 108.675927 
L 303.714936 85.279505 
" clip-path="url(#p0f761e12ae)" style="fill: none; stroke: #3b78b6; stroke-width: 1.8; stroke-linecap: square"/>
   </g>
   <g id="patch_29">
    <path d="M 218.421842 202.261614 
L 218.421842 79.4304 
" style="fill: none; stroke: #202124; stroke-width: 0.8; stroke-linejoin: miter; stroke-linecap: square"/>
   </g>
   <g id="patch_30">
    <path d="M 218.421842 202.261614 
L 315.912716 202.261614 
" style="fill: none; stroke: #202124; stroke-width: 0.8; stroke-linejoin: miter; stroke-linecap: square"/>
   </g>
   <g id="text_18">
    <text style="font-size: 6.8px; font-family: 'Arial', 'Helvetica', 'DejaVu Sans', sans-serif; text-anchor: start; fill: #62666d" x="220.371659" y="91.750859" transform="rotate(-0 220.371659 91.750859)">3.2 km2, 9 d</text>
   </g>
   <g id="text_19">
    <text style="font-weight: 700; font-size: 8.5px; font-family: 'Arial', 'Helvetica', 'DejaVu Sans', sans-serif; fill: #3b78b6" transform="translate(237.888099 64.179013)">Steady growth</text>
    <text style="font-weight: 700; font-size: 8.5px; font-family: 'Arial', 'Helvetica', 'DejaVu Sans', sans-serif; fill: #3b78b6" transform="translate(218.283646 73.4304)">persistent accumulation</text>
   </g>
  </g>
  <g id="axes_4">
   <g id="patch_31">
    <path d="M 267.167279 349.165173 
C 271.836813 349.165173 276.315723 348.819472 279.617582 348.204207 
C 282.919441 347.588942 284.774666 346.754346 284.774666 345.88423 
C 284.774666 345.014114 282.919441 344.179518 279.617582 343.564253 
C 276.315723 342.948988 271.836813 342.603287 267.167279 342.603287 
C 262.497745 342.603287 258.018835 342.948988 254.716976 343.564253 
C 251.415117 344.179518 249.559892 345.014114 249.559892 345.88423 
C 249.559892 346.754346 251.415117 347.588942 254.716976 348.204207 
C 258.018835 348.819472 262.497745 349.165173 267.167279 349.165173 
z
" clip-path="url(#p637b458af4)" style="fill: #3b78b6; opacity: 0.9; stroke: #202124; stroke-width: 0.45; stroke-linejoin: miter"/>
   </g>
   <g id="patch_32">
    <path d="M 267.167279 325.729867 
C 273.770997 325.729867 280.105133 325.384166 284.774666 324.768901 
C 289.4442 324.153636 292.067885 323.31904 292.067885 322.448924 
C 292.067885 321.578808 289.4442 320.744212 284.774666 320.128947 
C 280.105133 319.513682 273.770997 319.167981 267.167279 319.167981 
C 260.563561 319.167981 254.229426 319.513682 249.559892 320.128947 
C 244.890358 320.744212 242.266673 321.578808 242.266673 322.448924 
C 242.266673 323.31904 244.890358 324.153636 249.559892 324.768901 
C 254.229426 325.384166 260.563561 325.729867 267.167279 325.729867 
z
" clip-path="url(#p637b458af4)" style="fill: #3b78b6; opacity: 0.9; stroke: #202124; stroke-width: 0.45; stroke-linejoin: miter"/>
   </g>
   <g id="patch_33">
    <path d="M 267.167279 302.29456 
C 275.255149 302.29456 283.012849 301.948859 288.731836 301.333594 
C 294.450824 300.718329 297.664168 299.883734 297.664168 299.013617 
C 297.664168 298.143501 294.450824 297.308906 288.731836 296.69364 
C 283.012849 296.078375 275.255149 295.732675 267.167279 295.732675 
C 259.07941 295.732675 251.321709 296.078375 245.602722 296.69364 
C 239.883734 297.308906 236.67039 298.143501 236.67039 299.013617 
C 236.67039 299.883734 239.883734 300.718329 245.602722 301.333594 
C 251.321709 301.948859 259.07941 302.29456 267.167279 302.29456 
z
" clip-path="url(#p637b458af4)" style="fill: #3b78b6; opacity: 0.9; stroke: #202124; stroke-width: 0.45; stroke-linejoin: miter"/>
   </g>
   <g id="patch_34">
    <path d="M 267.167279 278.859254 
C 276.506346 278.859254 285.464167 278.513553 292.067885 277.898288 
C 298.671603 277.283023 302.382054 276.448427 302.382054 275.578311 
C 302.382054 274.708195 298.671603 273.873599 292.067885 273.258334 
C 285.464167 272.643069 276.506346 272.297368 267.167279 272.297368 
C 257.828212 272.297368 248.870391 272.643069 242.266673 273.258334 
C 235.662955 273.873599 231.952505 274.708195 231.952505 275.578311 
C 231.952505 276.448427 235.662955 277.283023 242.266673 277.898288 
C 248.870391 278.513553 257.828212 278.859254 267.167279 278.859254 
z
" clip-path="url(#p637b458af4)" style="fill: #3b78b6; opacity: 0.9; stroke: #202124; stroke-width: 0.45; stroke-linejoin: miter"/>
   </g>
   <g id="patch_35">
    <path d="M 267.167279 255.423948 
C 277.608674 255.423948 287.623822 255.078247 295.007003 254.462982 
C 302.390184 253.847717 306.538594 253.013121 306.538594 252.143005 
C 306.538594 251.272888 302.390184 250.438293 295.007003 249.823028 
C 287.623822 249.207763 277.608674 248.862062 267.167279 248.862062 
C 256.725884 248.862062 246.710736 249.207763 239.327555 249.823028 
C 231.944374 250.438293 227.795964 251.272888 227.795964 252.143005 
C 227.795964 253.013121 231.944374 253.847717 239.327555 254.462982 
C 246.710736 255.078247 256.725884 255.423948 267.167279 255.423948 
z
" clip-path="url(#p637b458af4)" style="fill: #3b78b6; opacity: 0.9; stroke: #202124; stroke-width: 0.45; stroke-linejoin: miter"/>
   </g>
   <g id="line2d_27">
    <path d="M 249.559892 345.88423 
L 242.266673 322.448924 
L 236.67039 299.013617 
L 231.952505 275.578311 
L 227.795964 252.143005 
" clip-path="url(#p637b458af4)" style="fill: none; stroke: #202124; stroke-width: 0.85; stroke-linecap: square"/>
   </g>
   <g id="line2d_28">
    <path d="M 284.774666 345.88423 
L 292.067885 322.448924 
L 297.664168 299.013617 
L 302.382054 275.578311 
L 306.538594 252.143005 
" clip-path="url(#p637b458af4)" style="fill: none; stroke: #202124; stroke-width: 0.85; stroke-linecap: square"/>
   </g>
   <g id="text_20">
    <text style="font-size: 7.4px; font-family: 'Arial', 'Helvetica', 'DejaVu Sans', sans-serif; text-anchor: middle; fill: #62666d" x="267.167279" y="242.393356" transform="rotate(-0 267.167279 242.393356)">Fire VASE</text>
   </g>
  </g>
  <g id="axes_5">
   <g id="patch_36">
    <path d="M 356.858884 202.261614 
L 454.349758 202.261614 
L 454.349758 79.4304 
L 356.858884 79.4304 
z
" style="fill: #ffffff"/>
   </g>
   <g id="patch_37">
    <path d="M 361.290287 202.261614 
L 402.011291 202.261614 
L 402.011291 200.011959 
L 361.290287 200.011959 
z
" clip-path="url(#p5fc9b61ed6)" style="fill: #7b5bbd; opacity: 0.22"/>
   </g>
   <g id="patch_38">
    <path d="M 409.197351 202.261614 
L 449.918355 202.261614 
L 449.918355 85.279505 
L 409.197351 85.279505 
z
" clip-path="url(#p5fc9b61ed6)" style="fill: #7b5bbd; opacity: 0.22"/>
   </g>
   <g id="matplotlib.axis_5">
    <g id="xtick_8">
     <g id="line2d_29">
      <path d="M 381.650789 202.261614 
L 381.650789 79.4304 
" clip-path="url(#p5fc9b61ed6)" style="fill: none; stroke: #e6e8eb; stroke-opacity: 0.9; stroke-width: 0.45; stroke-linecap: square"/>
     </g>
     <g id="line2d_30">
      <g>
       <use xlink:href="#m62c119039d" x="381.650789" y="202.261614" style="fill: #202124; stroke: #202124; stroke-width: 0.8"/>
      </g>
     </g>
     <g id="text_21">
      <text style="font-size: 6.7px; font-family: 'Arial', 'Helvetica', 'DejaVu Sans', sans-serif; text-anchor: middle; fill: #202124" x="381.650789" y="214.139398" transform="rotate(-0 381.650789 214.139398)">0</text>
     </g>
    </g>
    <g id="xtick_9">
     <g id="line2d_31">
      <path d="M 429.557853 202.261614 
L 429.557853 79.4304 
" clip-path="url(#p5fc9b61ed6)" style="fill: none; stroke: #e6e8eb; stroke-opacity: 0.9; stroke-width: 0.45; stroke-linecap: square"/>
     </g>
     <g id="line2d_32">
      <g>
       <use xlink:href="#m62c119039d" x="429.557853" y="202.261614" style="fill: #202124; stroke: #202124; stroke-width: 0.8"/>
      </g>
     </g>
     <g id="text_22">
      <text style="font-size: 6.7px; font-family: 'Arial', 'Helvetica', 'DejaVu Sans', sans-serif; text-anchor: middle; fill: #202124" x="429.557853" y="214.139398" transform="rotate(-0 429.557853 214.139398)">1</text>
     </g>
    </g>
    <g id="text_23">
     <text style="font-size: 7.4px; font-family: 'Arial', 'Helvetica', 'DejaVu Sans', sans-serif; text-anchor: middle; fill: #202124" x="405.604321" y="224.93681" transform="rotate(-0 405.604321 224.93681)">Day</text>
    </g>
   </g>
   <g id="matplotlib.axis_6">
    <g id="ytick_5">
     <g id="line2d_33">
      <path d="M 356.858884 202.261614 
L 454.349758 202.261614 
" clip-path="url(#p5fc9b61ed6)" style="fill: none; stroke: #e6e8eb; stroke-opacity: 0.9; stroke-width: 0.45; stroke-linecap: square"/>
     </g>
     <g id="line2d_34">
      <g>
       <use xlink:href="#mb06fa159c0" x="356.858884" y="202.261614" style="fill: #202124; stroke: #202124; stroke-width: 0.8"/>
      </g>
     </g>
     <g id="text_24">
      <text style="font-size: 6.7px; font-family: 'Arial', 'Helvetica', 'DejaVu Sans', sans-serif; text-anchor: end; fill: #202124" x="349.858884" y="204.700506" transform="rotate(-0 349.858884 204.700506)">0</text>
     </g>
    </g>
    <g id="ytick_6">
     <g id="line2d_35">
      <path d="M 356.858884 85.279505 
L 454.349758 85.279505 
" clip-path="url(#p5fc9b61ed6)" style="fill: none; stroke: #e6e8eb; stroke-opacity: 0.9; stroke-width: 0.45; stroke-linecap: square"/>
     </g>
     <g id="line2d_36">
      <g>
       <use xlink:href="#mb06fa159c0" x="356.858884" y="85.279505" style="fill: #202124; stroke: #202124; stroke-width: 0.8"/>
      </g>
     </g>
     <g id="text_25">
      <text style="font-size: 6.7px; font-family: 'Arial', 'Helvetica', 'DejaVu Sans', sans-serif; text-anchor: end; fill: #202124" x="349.858884" y="87.718397" transform="rotate(-0 349.858884 87.718397)">1</text>
     </g>
    </g>
   </g>
   <g id="line2d_37">
    <path d="M 381.650789 200.054405 
L 429.557853 85.279505 
" clip-path="url(#p5fc9b61ed6)" style="fill: none; stroke: #7b5bbd; stroke-width: 1.8; stroke-linecap: square"/>
   </g>
   <g id="patch_39">
    <path d="M 356.858884 202.261614 
L 356.858884 79.4304 
" style="fill: none; stroke: #202124; stroke-width: 0.8; stroke-linejoin: miter; stroke-linecap: square"/>
   </g>
   <g id="patch_40">
    <path d="M 356.858884 202.261614 
L 454.349758 202.261614 
" style="fill: none; stroke: #202124; stroke-width: 0.8; stroke-linejoin: miter; stroke-linecap: square"/>
   </g>
   <g id="text_26">
    <text style="font-size: 6.8px; font-family: 'Arial', 'Helvetica', 'DejaVu Sans', sans-serif; text-anchor: start; fill: #62666d" x="358.808701" y="91.750859" transform="rotate(-0 358.808701 91.750859)">11.4 km2, 4 d</text>
   </g>
   <g id="text_27">
    <text style="font-weight: 700; font-size: 8.5px; font-family: 'Arial', 'Helvetica', 'DejaVu Sans', sans-serif; fill: #7b5bbd" transform="translate(384.113266 64.179013)">Late surge</text>
    <text style="font-weight: 700; font-size: 8.5px; font-family: 'Arial', 'Helvetica', 'DejaVu Sans', sans-serif; fill: #7b5bbd" transform="translate(371.367915 73.4304)">rapid growth late</text>
   </g>
  </g>
  <g id="axes_6">
   <g id="patch_41">
    <path d="M 405.604321 349.165173 
C 407.038557 349.165173 408.414243 348.819472 409.428401 348.204207 
C 410.442559 347.588942 411.012387 346.754346 411.012387 345.88423 
C 411.012387 345.014114 410.442559 344.179518 409.428401 343.564253 
C 408.414243 342.948988 407.038557 342.603287 405.604321 342.603287 
C 404.170085 342.603287 402.794399 342.948988 401.780241 343.564253 
C 400.766083 344.179518 400.196255 345.014114 400.196255 345.88423 
C 400.196255 346.754346 400.766083 347.588942 401.780241 348.204207 
C 402.794399 348.819472 404.170085 349.165173 405.604321 349.165173 
z
" clip-path="url(#pc893673b2d)" style="fill: #7b5bbd; opacity: 0.9; stroke: #202124; stroke-width: 0.45; stroke-linejoin: miter"/>
   </g>
   <g id="patch_42">
    <path d="M 405.604321 255.423948 
C 416.045716 255.423948 426.060864 255.078247 433.444045 254.462982 
C 440.827226 253.847717 444.975636 253.013121 444.975636 252.143005 
C 444.975636 251.272888 440.827226 250.438293 433.444045 249.823028 
C 426.060864 249.207763 416.045716 248.862062 405.604321 248.862062 
C 395.162926 248.862062 385.147778 249.207763 377.764597 249.823028 
C 370.381416 250.438293 366.233006 251.272888 366.233006 252.143005 
C 366.233006 253.013121 370.381416 253.847717 377.764597 254.462982 
C 385.147778 255.078247 395.162926 255.423948 405.604321 255.423948 
z
" clip-path="url(#pc893673b2d)" style="fill: #7b5bbd; opacity: 0.9; stroke: #202124; stroke-width: 0.45; stroke-linejoin: miter"/>
   </g>
   <g id="line2d_38">
    <path d="M 400.196255 345.88423 
L 366.233006 252.143005 
" clip-path="url(#pc893673b2d)" style="fill: none; stroke: #202124; stroke-width: 0.85; stroke-linecap: square"/>
   </g>
   <g id="line2d_39">
    <path d="M 411.012387 345.88423 
L 444.975636 252.143005 
" clip-path="url(#pc893673b2d)" style="fill: none; stroke: #202124; stroke-width: 0.85; stroke-linecap: square"/>
   </g>
   <g id="text_28">
    <text style="font-size: 7.4px; font-family: 'Arial', 'Helvetica', 'DejaVu Sans', sans-serif; text-anchor: middle; fill: #62666d" x="405.604321" y="242.393356" transform="rotate(-0 405.604321 242.393356)">Fire VASE</text>
   </g>
  </g>
  <g id="axes_7">
   <g id="patch_43">
    <path d="M 495.295925 202.261614 
L 592.7868 202.261614 
L 592.7868 79.4304 
L 495.295925 79.4304 
z
" style="fill: #ffffff"/>
   </g>
   <g id="patch_44">
    <path d="M 499.727329 202.261614 
L 502.338554 202.261614 
L 502.338554 176.26559 
L 499.727329 176.26559 
z
" clip-path="url(#p64815bc7bb)" style="fill: #d78232; opacity: 0.22"/>
   </g>
   <g id="patch_45">
    <path d="M 502.799359 202.261614 
L 505.410585 202.261614 
L 505.410585 176.26559 
L 502.799359 176.26559 
z
" clip-path="url(#p64815bc7bb)" style="fill: #d78232; opacity: 0.22"/>
   </g>
   <g id="patch_46">
    <path d="M 505.871389 202.261614 
L 508.482615 202.261614 
L 508.482615 137.271554 
L 505.871389 137.271554 
z
" clip-path="url(#p64815bc7bb)" style="fill: #d78232; opacity: 0.22"/>
   </g>
   <g id="patch_47">
    <path d="M 508.943419 202.261614 
L 511.554645 202.261614 
L 511.554645 189.263602 
L 508.943419 189.263602 
z
" clip-path="url(#p64815bc7bb)" style="fill: #d78232; opacity: 0.22"/>
   </g>
   <g id="patch_48">
    <path d="M 512.015449 202.261614 
L 514.626675 202.261614 
L 514.626675 189.263602 
L 512.015449 189.263602 
z
" clip-path="url(#p64815bc7bb)" style="fill: #d78232; opacity: 0.22"/>
   </g>
   <g id="patch_49">
    <path d="M 515.087479 202.261614 
L 517.698705 202.261614 
L 517.698705 163.267578 
L 515.087479 163.267578 
z
" clip-path="url(#p64815bc7bb)" style="fill: #d78232; opacity: 0.22"/>
   </g>
   <g id="patch_50">
    <path d="M 518.159509 202.261614 
L 520.770735 202.261614 
L 520.770735 85.279505 
L 518.159509 85.279505 
z
" clip-path="url(#p64815bc7bb)" style="fill: #d78232; opacity: 0.22"/>
   </g>
   <g id="patch_51">
    <path d="M 521.231539 202.261614 
L 523.842765 202.261614 
L 523.842765 189.263602 
L 521.231539 189.263602 
z
" clip-path="url(#p64815bc7bb)" style="fill: #d78232; opacity: 0.22"/>
   </g>
   <g id="patch_52">
    <path d="M 524.303569 202.261614 
L 526.914795 202.261614 
L 526.914795 98.277518 
L 524.303569 98.277518 
z
" clip-path="url(#p64815bc7bb)" style="fill: #d78232; opacity: 0.22"/>
   </g>
   <g id="patch_53">
    <path d="M 527.3756 202.261614 
L 529.986825 202.261614 
L 529.986825 163.267578 
L 527.3756 163.267578 
z
" clip-path="url(#p64815bc7bb)" style="fill: #d78232; opacity: 0.22"/>
   </g>
   <g id="patch_54">
    <path d="M 530.44763 202.261614 
L 533.058855 202.261614 
L 533.058855 137.271554 
L 530.44763 137.271554 
z
" clip-path="url(#p64815bc7bb)" style="fill: #d78232; opacity: 0.22"/>
   </g>
   <g id="patch_55">
    <path d="M 533.51966 202.261614 
L 536.130885 202.261614 
L 536.130885 176.26559 
L 533.51966 176.26559 
z
" clip-path="url(#p64815bc7bb)" style="fill: #d78232; opacity: 0.22"/>
   </g>
   <g id="patch_56">
    <path d="M 536.59169 202.261614 
L 539.202915 202.261614 
L 539.202915 189.263602 
L 536.59169 189.263602 
z
" clip-path="url(#p64815bc7bb)" style="fill: #d78232; opacity: 0.22"/>
   </g>
   <g id="patch_57">
    <path d="M 539.66372 202.261614 
L 542.274945 202.261614 
L 542.274945 189.263602 
L 539.66372 189.263602 
z
" clip-path="url(#p64815bc7bb)" style="fill: #d78232; opacity: 0.22"/>
   </g>
   <g id="patch_58">
    <path d="M 542.73575 202.261614 
L 545.346976 202.261614 
L 545.346976 176.26559 
L 542.73575 176.26559 
z
" clip-path="url(#p64815bc7bb)" style="fill: #d78232; opacity: 0.22"/>
   </g>
   <g id="patch_59">
    <path d="M 545.80778 202.261614 
L 548.419006 202.261614 
L 548.419006 85.279505 
L 545.80778 85.279505 
z
" clip-path="url(#p64815bc7bb)" style="fill: #d78232; opacity: 0.22"/>
   </g>
   <g id="patch_60">
    <path d="M 548.87981 202.261614 
L 551.491036 202.261614 
L 551.491036 189.263602 
L 548.87981 189.263602 
z
" clip-path="url(#p64815bc7bb)" style="fill: #d78232; opacity: 0.22"/>
   </g>
   <g id="patch_61">
    <path d="M 551.95184 202.261614 
L 554.563066 202.261614 
L 554.563066 111.27553 
L 551.95184 111.27553 
z
" clip-path="url(#p64815bc7bb)" style="fill: #d78232; opacity: 0.22"/>
   </g>
   <g id="patch_62">
    <path d="M 555.02387 202.261614 
L 557.635096 202.261614 
L 557.635096 176.26559 
L 555.02387 176.26559 
z
" clip-path="url(#p64815bc7bb)" style="fill: #d78232; opacity: 0.22"/>
   </g>
   <g id="patch_63">
    <path d="M 558.0959 202.261614 
L 560.707126 202.261614 
L 560.707126 137.271554 
L 558.0959 137.271554 
z
" clip-path="url(#p64815bc7bb)" style="fill: #d78232; opacity: 0.22"/>
   </g>
   <g id="patch_64">
    <path d="M 561.16793 202.261614 
L 563.779156 202.261614 
L 563.779156 176.26559 
L 561.16793 176.26559 
z
" clip-path="url(#p64815bc7bb)" style="fill: #d78232; opacity: 0.22"/>
   </g>
   <g id="patch_65">
    <path d="M 564.239961 202.261614 
L 566.851186 202.261614 
L 566.851186 163.267578 
L 564.239961 163.267578 
z
" clip-path="url(#p64815bc7bb)" style="fill: #d78232; opacity: 0.22"/>
   </g>
   <g id="patch_66">
    <path d="M 567.311991 202.261614 
L 569.923216 202.261614 
L 569.923216 189.263602 
L 567.311991 189.263602 
z
" clip-path="url(#p64815bc7bb)" style="fill: #d78232; opacity: 0.22"/>
   </g>
   <g id="patch_67">
    <path d="M 570.384021 202.261614 
L 572.995246 202.261614 
L 572.995246 176.26559 
L 570.384021 176.26559 
z
" clip-path="url(#p64815bc7bb)" style="fill: #d78232; opacity: 0.22"/>
   </g>
   <g id="patch_68">
    <path d="M 573.456051 202.261614 
L 576.067276 202.261614 
L 576.067276 150.269566 
L 573.456051 150.269566 
z
" clip-path="url(#p64815bc7bb)" style="fill: #d78232; opacity: 0.22"/>
   </g>
   <g id="patch_69">
    <path d="M 576.528081 202.261614 
L 579.139306 202.261614 
L 579.139306 176.26559 
L 576.528081 176.26559 
z
" clip-path="url(#p64815bc7bb)" style="fill: #d78232; opacity: 0.22"/>
   </g>
   <g id="patch_70">
    <path d="M 579.600111 202.261614 
L 582.211336 202.261614 
L 582.211336 150.269566 
L 579.600111 150.269566 
z
" clip-path="url(#p64815bc7bb)" style="fill: #d78232; opacity: 0.22"/>
   </g>
   <g id="patch_71">
    <path d="M 582.672141 202.261614 
L 585.283367 202.261614 
L 585.283367 189.263602 
L 582.672141 189.263602 
z
" clip-path="url(#p64815bc7bb)" style="fill: #d78232; opacity: 0.22"/>
   </g>
   <g id="patch_72">
    <path d="M 585.744171 202.261614 
L 588.355397 202.261614 
L 588.355397 176.26559 
L 585.744171 176.26559 
z
" clip-path="url(#p64815bc7bb)" style="fill: #d78232; opacity: 0.22"/>
   </g>
   <g id="matplotlib.axis_7">
    <g id="xtick_10">
     <g id="line2d_40">
      <path d="M 501.032942 202.261614 
L 501.032942 79.4304 
" clip-path="url(#p64815bc7bb)" style="fill: none; stroke: #e6e8eb; stroke-opacity: 0.9; stroke-width: 0.45; stroke-linecap: square"/>
     </g>
     <g id="line2d_41">
      <g>
       <use xlink:href="#m62c119039d" x="501.032942" y="202.261614" style="fill: #202124; stroke: #202124; stroke-width: 0.8"/>
      </g>
     </g>
     <g id="text_29">
      <text style="font-size: 6.7px; font-family: 'Arial', 'Helvetica', 'DejaVu Sans', sans-serif; text-anchor: middle; fill: #202124" x="501.032942" y="214.139398" transform="rotate(-0 501.032942 214.139398)">0</text>
     </g>
    </g>
    <g id="xtick_11">
     <g id="line2d_42">
      <path d="M 531.753242 202.261614 
L 531.753242 79.4304 
" clip-path="url(#p64815bc7bb)" style="fill: none; stroke: #e6e8eb; stroke-opacity: 0.9; stroke-width: 0.45; stroke-linecap: square"/>
     </g>
     <g id="line2d_43">
      <g>
       <use xlink:href="#m62c119039d" x="531.753242" y="202.261614" style="fill: #202124; stroke: #202124; stroke-width: 0.8"/>
      </g>
     </g>
     <g id="text_30">
      <text style="font-size: 6.7px; font-family: 'Arial', 'Helvetica', 'DejaVu Sans', sans-serif; text-anchor: middle; fill: #202124" x="531.753242" y="214.139398" transform="rotate(-0 531.753242 214.139398)">10</text>
     </g>
    </g>
    <g id="xtick_12">
     <g id="line2d_44">
      <path d="M 562.473543 202.261614 
L 562.473543 79.4304 
" clip-path="url(#p64815bc7bb)" style="fill: none; stroke: #e6e8eb; stroke-opacity: 0.9; stroke-width: 0.45; stroke-linecap: square"/>
     </g>
     <g id="line2d_45">
      <g>
       <use xlink:href="#m62c119039d" x="562.473543" y="202.261614" style="fill: #202124; stroke: #202124; stroke-width: 0.8"/>
      </g>
     </g>
     <g id="text_31">
      <text style="font-size: 6.7px; font-family: 'Arial', 'Helvetica', 'DejaVu Sans', sans-serif; text-anchor: middle; fill: #202124" x="562.473543" y="214.139398" transform="rotate(-0 562.473543 214.139398)">20</text>
     </g>
    </g>
    <g id="text_32">
     <text style="font-size: 7.4px; font-family: 'Arial', 'Helvetica', 'DejaVu Sans', sans-serif; text-anchor: middle; fill: #202124" x="544.041363" y="224.93681" transform="rotate(-0 544.041363 224.93681)">Day</text>
    </g>
   </g>
   <g id="matplotlib.axis_8">
    <g id="ytick_7">
     <g id="line2d_46">
      <path d="M 495.295925 202.261614 
L 592.7868 202.261614 
" clip-path="url(#p64815bc7bb)" style="fill: none; stroke: #e6e8eb; stroke-opacity: 0.9; stroke-width: 0.45; stroke-linecap: square"/>
     </g>
     <g id="line2d_47">
      <g>
       <use xlink:href="#mb06fa159c0" x="495.295925" y="202.261614" style="fill: #202124; stroke: #202124; stroke-width: 0.8"/>
      </g>
     </g>
     <g id="text_33">
      <text style="font-size: 6.7px; font-family: 'Arial', 'Helvetica', 'DejaVu Sans', sans-serif; text-anchor: end; fill: #202124" x="488.295925" y="204.700506" transform="rotate(-0 488.295925 204.700506)">0</text>
     </g>
    </g>
    <g id="ytick_8">
     <g id="line2d_48">
      <path d="M 495.295925 85.279505 
L 592.7868 85.279505 
" clip-path="url(#p64815bc7bb)" style="fill: none; stroke: #e6e8eb; stroke-opacity: 0.9; stroke-width: 0.45; stroke-linecap: square"/>
     </g>
     <g id="line2d_49">
      <g>
       <use xlink:href="#mb06fa159c0" x="495.295925" y="85.279505" style="fill: #202124; stroke: #202124; stroke-width: 0.8"/>
      </g>
     </g>
     <g id="text_34">
      <text style="font-size: 6.7px; font-family: 'Arial', 'Helvetica', 'DejaVu Sans', sans-serif; text-anchor: end; fill: #202124" x="488.295925" y="87.718397" transform="rotate(-0 488.295925 87.718397)">1</text>
     </g>
    </g>
   </g>
   <g id="line2d_50">
    <path d="M 501.032942 199.690579 
L 504.104972 197.119544 
L 507.177002 190.691955 
L 510.249032 189.406438 
L 513.321062 188.12092 
L 516.393092 184.264367 
L 519.465122 172.694708 
L 522.537152 171.40919 
L 525.609182 161.125049 
L 528.681212 157.268496 
L 531.753242 150.840907 
L 534.825273 148.269872 
L 537.897303 146.984354 
L 540.969333 145.698836 
L 544.041363 143.127801 
L 547.113393 131.558142 
L 550.185423 130.272624 
L 553.257453 121.274001 
L 556.329483 118.702965 
L 559.401513 112.275377 
L 562.473543 109.704341 
L 565.545573 105.847788 
L 568.617603 104.562271 
L 571.689633 101.991235 
L 574.761664 96.849165 
L 577.833694 94.278129 
L 580.905724 89.136058 
L 583.977754 87.850541 
L 587.049784 85.279505 
" clip-path="url(#p64815bc7bb)" style="fill: none; stroke: #d78232; stroke-width: 1.8; stroke-linecap: square"/>
   </g>
   <g id="patch_73">
    <path d="M 495.295925 202.261614 
L 495.295925 79.4304 
" style="fill: none; stroke: #202124; stroke-width: 0.8; stroke-linejoin: miter; stroke-linecap: square"/>
   </g>
   <g id="patch_74">
    <path d="M 495.295925 202.261614 
L 592.7868 202.261614 
" style="fill: none; stroke: #202124; stroke-width: 0.8; stroke-linejoin: miter; stroke-linecap: square"/>
   </g>
   <g id="text_35">
    <text style="font-size: 6.8px; font-family: 'Arial', 'Helvetica', 'DejaVu Sans', sans-serif; text-anchor: start; fill: #62666d" x="497.245743" y="91.750859" transform="rotate(-0 497.245743 91.750859)">19.5 km2, 39 d</text>
   </g>
   <g id="text_36">
    <text style="font-weight: 700; font-size: 8.5px; font-family: 'Arial', 'Helvetica', 'DejaVu Sans', sans-serif; fill: #d78232" transform="translate(521.614644 64.179179)">Multi-pulse</text>
    <text style="font-weight: 700; font-size: 8.5px; font-family: 'Arial', 'Helvetica', 'DejaVu Sans', sans-serif; fill: #d78232" transform="translate(511.216089 73.4304)">complex pattern</text>
   </g>
  </g>
  <g id="axes_8">
   <g id="patch_75">
    <path d="M 544.041363 347.196607 
C 545.589298 347.196607 547.074042 347.058327 548.168598 346.812221 
C 549.263154 346.566115 549.878155 346.232277 549.878155 345.88423 
C 549.878155 345.536184 549.263154 345.202345 548.168598 344.956239 
C 547.074042 344.710133 545.589298 344.571853 544.041363 344.571853 
C 542.493427 344.571853 541.008683 344.710133 539.914128 344.956239 
C 538.819572 345.202345 538.204571 345.536184 538.204571 345.88423 
C 538.204571 346.232277 538.819572 346.566115 539.914128 346.812221 
C 541.008683 347.058327 542.493427 347.196607 544.041363 347.196607 
z
" clip-path="url(#p61f521561e)" style="fill: #d78232; opacity: 0.9; stroke: #202124; stroke-width: 0.45; stroke-linejoin: miter"/>
   </g>
   <g id="patch_76">
    <path d="M 544.041363 343.848706 
C 546.230474 343.848706 548.330219 343.710426 549.878155 343.46432 
C 551.42609 343.218214 552.295833 342.884376 552.295833 342.536329 
C 552.295833 342.188283 551.42609 341.854445 549.878155 341.608338 
C 548.330219 341.362232 546.230474 341.223952 544.041363 341.223952 
C 541.852252 341.223952 539.752506 341.362232 538.204571 341.608338 
C 536.656635 341.854445 535.786892 342.188283 535.786892 342.536329 
C 535.786892 342.884376 536.656635 343.218214 538.204571 343.46432 
C 539.752506 343.710426 541.852252 343.848706 544.041363 343.848706 
z
" clip-path="url(#p61f521561e)" style="fill: #d78232; opacity: 0.9; stroke: #202124; stroke-width: 0.45; stroke-linejoin: miter"/>
   </g>
   <g id="patch_77">
    <path d="M 544.041363 340.500806 
C 547.325029 340.500806 550.474648 340.362525 552.796551 340.116419 
C 555.118454 339.870313 556.423068 339.536475 556.423068 339.188428 
C 556.423068 338.840382 555.118454 338.506544 552.796551 338.260438 
C 550.474648 338.014332 547.325029 337.876051 544.041363 337.876051 
C 540.757696 337.876051 537.608078 338.014332 535.286175 338.260438 
C 532.964272 338.506544 531.659657 338.840382 531.659657 339.188428 
C 531.659657 339.536475 532.964272 339.870313 535.286175 340.116419 
C 537.608078 340.362525 540.757696 340.500806 544.041363 340.500806 
z
" clip-path="url(#p61f521561e)" style="fill: #d78232; opacity: 0.9; stroke: #202124; stroke-width: 0.45; stroke-linejoin: miter"/>
   </g>
   <g id="patch_78">
    <path d="M 544.041363 337.152905 
C 547.502651 337.152905 550.822641 337.014624 553.270141 336.768518 
C 555.717642 336.522412 557.092826 336.188574 557.092826 335.840527 
C 557.092826 335.492481 555.717642 335.158643 553.270141 334.912537 
C 550.822641 334.666431 547.502651 334.52815 544.041363 334.52815 
C 540.580074 334.52815 537.260085 334.666431 534.812584 334.912537 
C 532.365084 335.158643 530.989899 335.492481 530.989899 335.840527 
C 530.989899 336.188574 532.365084 336.522412 534.812584 336.768518 
C 537.260085 337.014624 540.580074 337.152905 544.041363 337.152905 
z
" clip-path="url(#p61f521561e)" style="fill: #d78232; opacity: 0.9; stroke: #202124; stroke-width: 0.45; stroke-linejoin: miter"/>
   </g>
   <g id="patch_79">
    <path d="M 544.041363 333.805004 
C 547.671593 333.805004 551.153627 333.666723 553.720587 333.420617 
C 556.287548 333.174511 557.729853 332.840673 557.729853 332.492627 
C 557.729853 332.14458 556.287548 331.810742 553.720587 331.564636 
C 551.153627 331.31853 547.671593 331.180249 544.041363 331.180249 
C 540.411133 331.180249 536.929099 331.31853 534.362138 331.564636 
C 531.795178 331.810742 530.352872 332.14458 530.352872 332.492627 
C 530.352872 332.840673 531.795178 333.174511 534.362138 333.420617 
C 536.929099 333.666723 540.411133 333.805004 544.041363 333.805004 
z
" clip-path="url(#p61f521561e)" style="fill: #d78232; opacity: 0.9; stroke: #202124; stroke-width: 0.45; stroke-linejoin: miter"/>
   </g>
   <g id="patch_80">
    <path d="M 544.041363 330.457103 
C 548.136815 330.457103 552.065079 330.318822 554.961001 330.072716 
C 557.856923 329.82661 559.484063 329.492772 559.484063 329.144726 
C 559.484063 328.796679 557.856923 328.462841 554.961001 328.216735 
C 552.065079 327.970629 548.136815 327.832348 544.041363 327.832348 
C 539.945911 327.832348 536.017647 327.970629 533.121725 328.216735 
C 530.225803 328.462841 528.598663 328.796679 528.598663 329.144726 
C 528.598663 329.492772 530.225803 329.82661 533.121725 330.072716 
C 536.017647 330.318822 539.945911 330.457103 544.041363 330.457103 
z
" clip-path="url(#p61f521561e)" style="fill: #d78232; opacity: 0.9; stroke: #202124; stroke-width: 0.45; stroke-linejoin: miter"/>
   </g>
   <g id="patch_81">
    <path d="M 544.041363 327.109202 
C 549.290667 327.109202 554.32568 326.970922 558.037498 326.724815 
C 561.749317 326.478709 563.834888 326.144871 563.834888 325.796825 
C 563.834888 325.448778 561.749317 325.11494 558.037498 324.868834 
C 554.32568 324.622728 549.290667 324.484448 544.041363 324.484448 
C 538.792059 324.484448 533.757046 324.622728 530.045227 324.868834 
C 526.333409 325.11494 524.247838 325.448778 524.247838 325.796825 
C 524.247838 326.144871 526.333409 326.478709 530.045227 326.724815 
C 533.757046 326.970922 538.792059 327.109202 544.041363 327.109202 
z
" clip-path="url(#p61f521561e)" style="fill: #d78232; opacity: 0.9; stroke: #202124; stroke-width: 0.45; stroke-linejoin: miter"/>
   </g>
   <g id="patch_82">
    <path d="M 544.041363 323.761301 
C 549.403568 323.761301 554.546873 323.623021 558.338525 323.376915 
C 562.130177 323.130809 564.260603 322.79697 564.260603 322.448924 
C 564.260603 322.100877 562.130177 321.767039 558.338525 321.520933 
C 554.546873 321.274827 549.403568 321.136547 544.041363 321.136547 
C 538.679157 321.136547 533.535852 321.274827 529.744201 321.520933 
C 525.952549 321.767039 523.822122 322.100877 523.822122 322.448924 
C 523.822122 322.79697 525.952549 323.130809 529.744201 323.376915 
C 533.535852 323.623021 538.679157 323.761301 544.041363 323.761301 
z
" clip-path="url(#p61f521561e)" style="fill: #d78232; opacity: 0.9; stroke: #202124; stroke-width: 0.45; stroke-linejoin: miter"/>
   </g>
   <g id="patch_83">
    <path d="M 544.041363 320.4134 
C 550.233104 320.4134 556.172081 320.27512 560.550304 320.029014 
C 564.928526 319.782908 567.388531 319.449069 567.388531 319.101023 
C 567.388531 318.752976 564.928526 318.419138 560.550304 318.173032 
C 556.172081 317.926926 550.233104 317.788646 544.041363 317.788646 
C 537.849621 317.788646 531.910644 317.926926 527.532422 318.173032 
C 523.1542 318.419138 520.694195 318.752976 520.694195 319.101023 
C 520.694195 319.449069 523.1542 319.782908 527.532422 320.029014 
C 531.910644 320.27512 537.849621 320.4134 544.041363 320.4134 
z
" clip-path="url(#p61f521561e)" style="fill: #d78232; opacity: 0.9; stroke: #202124; stroke-width: 0.45; stroke-linejoin: miter"/>
   </g>
   <g id="patch_84">
    <path d="M 544.041363 317.065499 
C 550.516841 317.065499 556.727972 316.927219 561.306826 316.681113 
C 565.885681 316.435007 568.458416 316.101168 568.458416 315.753122 
C 568.458416 315.405075 565.885681 315.071237 561.306826 314.825131 
C 556.727972 314.579025 550.516841 314.440745 544.041363 314.440745 
C 537.565885 314.440745 531.354754 314.579025 526.775899 314.825131 
C 522.197045 315.071237 519.62431 315.405075 519.62431 315.753122 
C 519.62431 316.101168 522.197045 316.435007 526.775899 316.681113 
C 531.354754 316.927219 537.565885 317.065499 544.041363 317.065499 
z
" clip-path="url(#p61f521561e)" style="fill: #d78232; opacity: 0.9; stroke: #202124; stroke-width: 0.45; stroke-linejoin: miter"/>
   </g>
   <g id="patch_85">
    <path d="M 544.041363 313.717598 
C 550.96394 313.717598 557.603918 313.579318 562.49892 313.333212 
C 567.393921 313.087106 570.14429 312.753268 570.14429 312.405221 
C 570.14429 312.057175 567.393921 311.723336 562.49892 311.47723 
C 557.603918 311.231124 550.96394 311.092844 544.041363 311.092844 
C 537.118785 311.092844 530.478807 311.231124 525.583806 311.47723 
C 520.688804 311.723336 517.938435 312.057175 517.938435 312.405221 
C 517.938435 312.753268 520.688804 313.087106 525.583806 313.333212 
C 530.478807 313.579318 537.118785 313.717598 544.041363 313.717598 
z
" clip-path="url(#p61f521561e)" style="fill: #d78232; opacity: 0.9; stroke: #202124; stroke-width: 0.45; stroke-linejoin: miter"/>
   </g>
   <g id="patch_86">
    <path d="M 544.041363 310.369697 
C 551.134894 310.369697 557.938847 310.231417 562.954731 309.985311 
C 567.970614 309.739205 570.788904 309.405367 570.788904 309.05732 
C 570.788904 308.709274 567.970614 308.375435 562.954731 308.129329 
C 557.938847 307.883223 551.134894 307.744943 544.041363 307.744943 
C 536.947832 307.744943 530.143879 307.883223 525.127995 308.129329 
C 520.112111 308.375435 517.293821 308.709274 517.293821 309.05732 
C 517.293821 309.405367 520.112111 309.739205 525.127995 309.985311 
C 530.143879 310.231417 536.947832 310.369697 544.041363 310.369697 
z
" clip-path="url(#p61f521561e)" style="fill: #d78232; opacity: 0.9; stroke: #202124; stroke-width: 0.45; stroke-linejoin: miter"/>
   </g>
   <g id="patch_87">
    <path d="M 544.041363 307.021796 
C 551.218844 307.021796 558.10332 306.883516 563.178565 306.63741 
C 568.253811 306.391304 571.105454 306.057466 571.105454 305.709419 
C 571.105454 305.361373 568.253811 305.027534 563.178565 304.781428 
C 558.10332 304.535322 551.218844 304.397042 544.041363 304.397042 
C 536.863882 304.397042 529.979406 304.535322 524.90416 304.781428 
C 519.828915 305.027534 516.977271 305.361373 516.977271 305.709419 
C 516.977271 306.057466 519.828915 306.391304 524.90416 306.63741 
C 529.979406 306.883516 536.863882 307.021796 544.041363 307.021796 
z
" clip-path="url(#p61f521561e)" style="fill: #d78232; opacity: 0.9; stroke: #202124; stroke-width: 0.45; stroke-linejoin: miter"/>
   </g>
   <g id="patch_88">
    <path d="M 544.041363 303.673895 
C 551.301823 303.673895 558.265891 303.535615 563.399812 303.289509 
C 568.533733 303.043403 571.418344 302.709565 571.418344 302.361518 
C 571.418344 302.013472 568.533733 301.679634 563.399812 301.433528 
C 558.265891 301.187422 551.301823 301.049141 544.041363 301.049141 
C 536.780902 301.049141 529.816834 301.187422 524.682914 301.433528 
C 519.548993 301.679634 516.664381 302.013472 516.664381 302.361518 
C 516.664381 302.709565 519.548993 303.043403 524.682914 303.289509 
C 529.816834 303.535615 536.780902 303.673895 544.041363 303.673895 
z
" clip-path="url(#p61f521561e)" style="fill: #d78232; opacity: 0.9; stroke: #202124; stroke-width: 0.45; stroke-linejoin: miter"/>
   </g>
   <g id="patch_89">
    <path d="M 544.041363 300.325995 
C 551.465 300.325995 558.585583 300.187714 563.834888 299.941608 
C 569.084192 299.695502 572.033634 299.361664 572.033634 299.013617 
C 572.033634 298.665571 569.084192 298.331733 563.834888 298.085627 
C 558.585583 297.839521 551.465 297.70124 544.041363 297.70124 
C 536.617726 297.70124 529.497142 297.839521 524.247838 298.085627 
C 518.998534 298.331733 516.049092 298.665571 516.049092 299.013617 
C 516.049092 299.361664 518.998534 299.695502 524.247838 299.941608 
C 529.497142 300.187714 536.617726 300.325995 544.041363 300.325995 
z
" clip-path="url(#p61f521561e)" style="fill: #d78232; opacity: 0.9; stroke: #202124; stroke-width: 0.45; stroke-linejoin: miter"/>
   </g>
   <g id="patch_90">
    <path d="M 544.041363 296.978094 
C 552.158804 296.978094 559.944869 296.839813 565.684767 296.593707 
C 571.424665 296.347601 574.649758 296.013763 574.649758 295.665717 
C 574.649758 295.31767 571.424665 294.983832 565.684767 294.737726 
C 559.944869 294.49162 552.158804 294.353339 544.041363 294.353339 
C 535.923921 294.353339 528.137857 294.49162 522.397959 294.737726 
C 516.658061 294.983832 513.432967 295.31767 513.432967 295.665717 
C 513.432967 296.013763 516.658061 296.347601 522.397959 296.593707 
C 528.137857 296.839813 535.923921 296.978094 544.041363 296.978094 
z
" clip-path="url(#p61f521561e)" style="fill: #d78232; opacity: 0.9; stroke: #202124; stroke-width: 0.45; stroke-linejoin: miter"/>
   </g>
   <g id="patch_91">
    <path d="M 544.041363 293.630193 
C 552.232267 293.630193 560.088795 293.491912 565.880639 293.245806 
C 571.672482 292.9997 574.926763 292.665862 574.926763 292.317816 
C 574.926763 291.969769 571.672482 291.635931 565.880639 291.389825 
C 560.088795 291.143719 552.232267 291.005438 544.041363 291.005438 
C 535.850459 291.005438 527.99393 291.143719 522.202087 291.389825 
C 516.410243 291.635931 513.155962 291.969769 513.155962 292.317816 
C 513.155962 292.665862 516.410243 292.9997 522.202087 293.245806 
C 527.99393 293.491912 535.850459 293.630193 544.041363 293.630193 
z
" clip-path="url(#p61f521561e)" style="fill: #d78232; opacity: 0.9; stroke: #202124; stroke-width: 0.45; stroke-linejoin: miter"/>
   </g>
   <g id="patch_92">
    <path d="M 544.041363 290.282292 
C 552.729128 290.282292 561.062235 290.144012 567.205413 289.897905 
C 573.348591 289.651799 576.800277 289.317961 576.800277 288.969915 
C 576.800277 288.621868 573.348591 288.28803 567.205413 288.041924 
C 561.062235 287.795818 552.729128 287.657538 544.041363 287.657538 
C 535.353597 287.657538 527.02049 287.795818 520.877313 288.041924 
C 514.734135 288.28803 511.282449 288.621868 511.282449 288.969915 
C 511.282449 289.317961 514.734135 289.651799 520.877313 289.897905 
C 527.02049 290.144012 535.353597 290.282292 544.041363 290.282292 
z
" clip-path="url(#p61f521561e)" style="fill: #d78232; opacity: 0.9; stroke: #202124; stroke-width: 0.45; stroke-linejoin: miter"/>
   </g>
   <g id="patch_93">
    <path d="M 544.041363 286.934391 
C 552.865952 286.934391 561.330297 286.796111 567.570224 286.550005 
C 573.81015 286.303899 577.316197 285.97006 577.316197 285.622014 
C 577.316197 285.273967 573.81015 284.940129 567.570224 284.694023 
C 561.330297 284.447917 552.865952 284.309637 544.041363 284.309637 
C 535.216774 284.309637 526.752429 284.447917 520.512502 284.694023 
C 514.272575 284.940129 510.766529 285.273967 510.766529 285.622014 
C 510.766529 285.97006 514.272575 286.303899 520.512502 286.550005 
C 526.752429 286.796111 535.216774 286.934391 544.041363 286.934391 
z
" clip-path="url(#p61f521561e)" style="fill: #d78232; opacity: 0.9; stroke: #202124; stroke-width: 0.45; stroke-linejoin: miter"/>
   </g>
   <g id="patch_94">
    <path d="M 544.041363 283.58649 
C 553.199072 283.58649 561.982937 283.44821 568.458416 283.202104 
C 574.933894 282.955998 578.57229 282.622159 578.57229 282.274113 
C 578.57229 281.926066 574.933894 281.592228 568.458416 281.346122 
C 561.982937 281.100016 553.199072 280.961736 544.041363 280.961736 
C 534.883654 280.961736 526.099788 281.100016 519.62431 281.346122 
C 513.148832 281.592228 509.510435 281.926066 509.510435 282.274113 
C 509.510435 282.622159 513.148832 282.955998 519.62431 283.202104 
C 526.099788 283.44821 534.883654 283.58649 544.041363 283.58649 
z
" clip-path="url(#p61f521561e)" style="fill: #d78232; opacity: 0.9; stroke: #202124; stroke-width: 0.45; stroke-linejoin: miter"/>
   </g>
   <g id="patch_95">
    <path d="M 544.041363 280.238589 
C 553.328975 280.238589 562.237441 280.100309 568.804774 279.854203 
C 575.372108 279.608097 579.062115 279.274258 579.062115 278.926212 
C 579.062115 278.578165 575.372108 278.244327 568.804774 277.998221 
C 562.237441 277.752115 553.328975 277.613835 544.041363 277.613835 
C 534.753751 277.613835 525.845285 277.752115 519.277951 277.998221 
C 512.710618 278.244327 509.020611 278.578165 509.020611 278.926212 
C 509.020611 279.274258 512.710618 279.608097 519.277951 279.854203 
C 525.845285 280.100309 534.753751 280.238589 544.041363 280.238589 
z
" clip-path="url(#p61f521561e)" style="fill: #d78232; opacity: 0.9; stroke: #202124; stroke-width: 0.45; stroke-linejoin: miter"/>
   </g>
   <g id="patch_96">
    <path d="M 544.041363 276.890688 
C 553.520492 276.890688 562.612657 276.752408 569.315414 276.506302 
C 576.01817 276.260196 579.784268 275.926358 579.784268 275.578311 
C 579.784268 275.230265 576.01817 274.896426 569.315414 274.65032 
C 562.612657 274.404214 553.520492 274.265934 544.041363 274.265934 
C 534.562233 274.265934 525.470069 274.404214 518.767312 274.65032 
C 512.064555 274.896426 508.298457 275.230265 508.298457 275.578311 
C 508.298457 275.926358 512.064555 276.260196 518.767312 276.506302 
C 525.470069 276.752408 534.562233 276.890688 544.041363 276.890688 
z
" clip-path="url(#p61f521561e)" style="fill: #d78232; opacity: 0.9; stroke: #202124; stroke-width: 0.45; stroke-linejoin: miter"/>
   </g>
   <g id="patch_97">
    <path d="M 544.041363 273.542787 
C 553.583477 273.542787 562.736056 273.404507 569.483349 273.158401 
C 576.230643 272.912295 580.021765 272.578457 580.021765 272.23041 
C 580.021765 271.882364 576.230643 271.548525 569.483349 271.302419 
C 562.736056 271.056313 553.583477 270.918033 544.041363 270.918033 
C 534.499248 270.918033 525.34667 271.056313 518.599376 271.302419 
C 511.852082 271.548525 508.06096 271.882364 508.06096 272.23041 
C 508.06096 272.578457 511.852082 272.912295 518.599376 273.158401 
C 525.34667 273.404507 534.499248 273.542787 544.041363 273.542787 
z
" clip-path="url(#p61f521561e)" style="fill: #d78232; opacity: 0.9; stroke: #202124; stroke-width: 0.45; stroke-linejoin: miter"/>
   </g>
   <g id="patch_98">
    <path d="M 544.041363 270.194886 
C 553.708216 270.194886 562.980441 270.056606 569.815938 269.8105 
C 576.651436 269.564394 580.492117 269.230556 580.492117 268.882509 
C 580.492117 268.534463 576.651436 268.200624 569.815938 267.954518 
C 562.980441 267.708412 553.708216 267.570132 544.041363 267.570132 
C 534.37451 267.570132 525.102284 267.708412 518.266787 267.954518 
C 511.43129 268.200624 507.590608 268.534463 507.590608 268.882509 
C 507.590608 269.230556 511.43129 269.564394 518.266787 269.8105 
C 525.102284 270.056606 534.37451 270.194886 544.041363 270.194886 
z
" clip-path="url(#p61f521561e)" style="fill: #d78232; opacity: 0.9; stroke: #202124; stroke-width: 0.45; stroke-linejoin: miter"/>
   </g>
   <g id="patch_99">
    <path d="M 544.041363 266.846985 
C 553.952985 266.846985 563.459987 266.708705 570.468563 266.462599 
C 577.477138 266.216493 581.415067 265.882655 581.415067 265.534608 
C 581.415067 265.186562 577.477138 264.852724 570.468563 264.606618 
C 563.459987 264.360511 553.952985 264.222231 544.041363 264.222231 
C 534.12974 264.222231 524.622738 264.360511 517.614163 264.606618 
C 510.605588 264.852724 506.667658 265.186562 506.667658 265.534608 
C 506.667658 265.882655 510.605588 266.216493 517.614163 266.462599 
C 524.622738 266.708705 534.12974 266.846985 544.041363 266.846985 
z
" clip-path="url(#p61f521561e)" style="fill: #d78232; opacity: 0.9; stroke: #202124; stroke-width: 0.45; stroke-linejoin: miter"/>
   </g>
   <g id="patch_100">
    <path d="M 544.041363 263.499085 
C 554.07313 263.499085 563.695373 263.360804 570.788904 263.114698 
C 577.882435 262.868592 581.868098 262.534754 581.868098 262.186707 
C 581.868098 261.838661 577.882435 261.504823 570.788904 261.258717 
C 563.695373 261.012611 554.07313 260.87433 544.041363 260.87433 
C 534.009595 260.87433 524.387352 261.012611 517.293821 261.258717 
C 510.200291 261.504823 506.214627 261.838661 506.214627 262.186707 
C 506.214627 262.534754 510.200291 262.868592 517.293821 263.114698 
C 524.387352 263.360804 534.009595 263.499085 544.041363 263.499085 
z
" clip-path="url(#p61f521561e)" style="fill: #d78232; opacity: 0.9; stroke: #202124; stroke-width: 0.45; stroke-linejoin: miter"/>
   </g>
   <g id="patch_101">
    <path d="M 544.041363 260.151184 
C 554.309204 260.151184 564.157884 260.012903 571.418344 259.766797 
C 578.678804 259.520691 582.758261 259.186853 582.758261 258.838806 
C 582.758261 258.49076 578.678804 258.156922 571.418344 257.910816 
C 564.157884 257.66471 554.309204 257.526429 544.041363 257.526429 
C 533.773521 257.526429 523.924842 257.66471 516.664381 257.910816 
C 509.403921 258.156922 505.324464 258.49076 505.324464 258.838806 
C 505.324464 259.186853 509.403921 259.520691 516.664381 259.766797 
C 523.924842 260.012903 533.773521 260.151184 544.041363 260.151184 
z
" clip-path="url(#p61f521561e)" style="fill: #d78232; opacity: 0.9; stroke: #202124; stroke-width: 0.45; stroke-linejoin: miter"/>
   </g>
   <g id="patch_102">
    <path d="M 544.041363 256.803283 
C 554.367379 256.803283 564.271859 256.665002 571.573456 256.418896 
C 578.875052 256.17279 582.977622 255.838952 582.977622 255.490906 
C 582.977622 255.142859 578.875052 254.809021 571.573456 254.562915 
C 564.271859 254.316809 554.367379 254.178528 544.041363 254.178528 
C 533.715346 254.178528 523.810866 254.316809 516.50927 254.562915 
C 509.207673 254.809021 505.105104 255.142859 505.105104 255.490906 
C 505.105104 255.838952 509.207673 256.17279 516.50927 256.418896 
C 523.810866 256.665002 533.715346 256.803283 544.041363 256.803283 
z
" clip-path="url(#p61f521561e)" style="fill: #d78232; opacity: 0.9; stroke: #202124; stroke-width: 0.45; stroke-linejoin: miter"/>
   </g>
   <g id="patch_103">
    <path d="M 544.041363 253.455382 
C 554.482757 253.455382 564.497905 253.317101 571.881086 253.070995 
C 579.264267 252.824889 583.412677 252.491051 583.412677 252.143005 
C 583.412677 251.794958 579.264267 251.46112 571.881086 251.215014 
C 564.497905 250.968908 554.482757 250.830628 544.041363 250.830628 
C 533.599968 250.830628 523.58482 250.968908 516.201639 251.215014 
C 508.818458 251.46112 504.670048 251.794958 504.670048 252.143005 
C 504.670048 252.491051 508.818458 252.824889 516.201639 253.070995 
C 523.58482 253.317101 533.599968 253.455382 544.041363 253.455382 
z
" clip-path="url(#p61f521561e)" style="fill: #d78232; opacity: 0.9; stroke: #202124; stroke-width: 0.45; stroke-linejoin: miter"/>
   </g>
   <g id="line2d_51">
    <path d="M 538.204571 345.88423 
L 535.786892 342.536329 
L 531.659657 339.188428 
L 530.989899 335.840527 
L 530.352872 332.492627 
L 528.598663 329.144726 
L 524.247838 325.796825 
L 523.822122 322.448924 
L 520.694195 319.101023 
L 519.62431 315.753122 
L 517.938435 312.405221 
L 517.293821 309.05732 
L 516.977271 305.709419 
L 516.664381 302.361518 
L 516.049092 299.013617 
L 513.432967 295.665717 
L 513.155962 292.317816 
L 511.282449 288.969915 
L 510.766529 285.622014 
L 509.510435 282.274113 
L 509.020611 278.926212 
L 508.298457 275.578311 
L 508.06096 272.23041 
L 507.590608 268.882509 
L 506.667658 265.534608 
L 506.214627 262.186707 
L 505.324464 258.838806 
L 505.105104 255.490906 
L 504.670048 252.143005 
" clip-path="url(#p61f521561e)" style="fill: none; stroke: #202124; stroke-width: 0.85; stroke-linecap: square"/>
   </g>
   <g id="line2d_52">
    <path d="M 549.878155 345.88423 
L 552.295833 342.536329 
L 556.423068 339.188428 
L 557.092826 335.840527 
L 557.729853 332.492627 
L 559.484063 329.144726 
L 563.834888 325.796825 
L 564.260603 322.448924 
L 567.388531 319.101023 
L 568.458416 315.753122 
L 570.14429 312.405221 
L 570.788904 309.05732 
L 571.105454 305.709419 
L 571.418344 302.361518 
L 572.033634 299.013617 
L 574.649758 295.665717 
L 574.926763 292.317816 
L 576.800277 288.969915 
L 577.316197 285.622014 
L 578.57229 282.274113 
L 579.062115 278.926212 
L 579.784268 275.578311 
L 580.021765 272.23041 
L 580.492117 268.882509 
L 581.415067 265.534608 
L 581.868098 262.186707 
L 582.758261 258.838806 
L 582.977622 255.490906 
L 583.412677 252.143005 
" clip-path="url(#p61f521561e)" style="fill: none; stroke: #202124; stroke-width: 0.85; stroke-linecap: square"/>
   </g>
   <g id="text_37">
    <text style="font-size: 7.4px; font-family: 'Arial', 'Helvetica', 'DejaVu Sans', sans-serif; text-anchor: middle; fill: #62666d" x="544.041363" y="242.393356" transform="rotate(-0 544.041363 242.393356)">Fire VASE</text>
   </g>
  </g>
  <g id="axes_9">
   <g id="text_38">
    <text style="font-size: 8.2px; font-family: 'Arial', 'Helvetica', 'DejaVu Sans', sans-serif; text-anchor: start; fill: #202124" x="90.24084" y="409.452527" transform="rotate(-0 90.24084 409.452527)">Daily increments become ordered rings; ring width tracks cumulative burned area through developmental time.</text>
   </g>
  </g>
  <g id="text_39">
   <g id="patch_104">
    <path d="M 4.12 20.603242 
L 16.397031 20.603242 
L 16.397031 4.12 
L 4.12 4.12 
z
" style="fill: #b23a32; stroke: #b23a32; stroke-linejoin: miter"/>
   </g>
   <text style="font-weight: 700; font-size: 11px; font-family: 'Arial', 'Helvetica', 'DejaVu Sans', sans-serif; text-anchor: start; fill: #ffffff" x="7.2" y="15.208301" transform="rotate(-0 7.2 15.208301)">1</text>
  </g>
  <g id="text_40">
   <text style="font-weight: 700; font-size: 14px; font-family: 'Arial', 'Helvetica', 'DejaVu Sans', sans-serif; text-anchor: start; fill: #202124" x="40.284" y="17.392383" transform="rotate(-0 40.284 17.392383)">Every fire has a life history.</text>
  </g>
  <g id="text_41">
   <text style="font-size: 8.4px; font-family: 'Arial', 'Helvetica', 'DejaVu Sans', sans-serif; text-anchor: start; fill: #62666d" x="40.284" y="34.22423" transform="rotate(-0 40.284 34.22423)">Fires with simple final summaries can develop through different sequences.</text>
  </g>
  <g id="text_42">
   <g id="patch_105">
    <path d="M 103.334738 464.9064 
L 552.894863 464.9064 
Q 553.314863 464.9064 553.314863 464.4864 
L 553.314863 451.563033 
Q 553.314863 451.143033 552.894863 451.143033 
L 103.334738 451.143033 
Q 102.914738 451.143033 102.914738 451.563033 
L 102.914738 464.4864 
Q 102.914738 464.9064 103.334738 464.9064 
z
" style="fill: #ffffff; opacity: 0.96; stroke: #b23a32; stroke-linejoin: miter"/>
   </g>
   <text style="font-weight: 700; font-size: 8.4px; font-family: 'Arial', 'Helvetica', 'DejaVu Sans', sans-serif; text-anchor: middle; fill: #b23a32" x="328.1148" y="460.198462" transform="rotate(-0 328.1148 460.198462)">Takeaway: final area and duration hide when growth occurs; Fire VASE preserves the developmental sequence.</text>
  </g>
 </g>
 <defs>
  <clipPath id="p10ee45dc4c">
   <rect x="79.9848" y="79.4304" width="97.490875" height="122.831214"/>
  </clipPath>
  <clipPath id="p68cc405e16">
   <rect x="79.9848" y="248.393356" width="97.490875" height="101.240524"/>
  </clipPath>
  <clipPath id="p0f761e12ae">
   <rect x="218.421842" y="79.4304" width="97.490875" height="122.831214"/>
  </clipPath>
  <clipPath id="p637b458af4">
   <rect x="218.421842" y="248.393356" width="97.490875" height="101.240524"/>
  </clipPath>
  <clipPath id="p5fc9b61ed6">
   <rect x="356.858884" y="79.4304" width="97.490875" height="122.831214"/>
  </clipPath>
  <clipPath id="pc893673b2d">
   <rect x="356.858884" y="248.393356" width="97.490875" height="101.240524"/>
  </clipPath>
  <clipPath id="p64815bc7bb">
   <rect x="495.295925" y="79.4304" width="97.490875" height="122.831214"/>
  </clipPath>
  <clipPath id="p61f521561e">
   <rect x="495.295925" y="248.393356" width="97.490875" height="101.240524"/>
  </clipPath>
 </defs>
</svg>
